<svg xmlns="http://www.w3.org/2000/svg" xmlns:xlink="http://www.w3.org/1999/xlink" width="500" zoomAndPan="magnify" viewBox="0 0 375 374.999991" height="500" preserveAspectRatio="xMidYMid meet" version="1.0"><defs><clipPath id="711ccdc0c6"><path d="M 267.183594 296 L 292 296 L 292 332.335938 L 267.183594 332.335938 Z M 267.183594 296 " clip-rule="nonzero"/></clipPath><clipPath id="3bb874bfcf"><path d="M 276 42.28125 L 301 42.28125 L 301 79 L 276 79 Z M 276 42.28125 " clip-rule="nonzero"/></clipPath><clipPath id="7623936825"><path d="M 57 42.28125 L 323 42.28125 L 323 322 L 57 322 Z M 57 42.28125 " clip-rule="nonzero"/></clipPath><clipPath id="f395677ad9"><path d="M 267.183594 296 L 292 296 L 292 332.335938 L 267.183594 332.335938 Z M 267.183594 296 " clip-rule="nonzero"/></clipPath><clipPath id="1a93fabbce"><path d="M 276 42.28125 L 301 42.28125 L 301 79 L 276 79 Z M 276 42.28125 " clip-rule="nonzero"/></clipPath><clipPath id="21a6602934"><path d="M 69 42.28125 L 177 42.28125 L 177 159 L 69 159 Z M 69 42.28125 " clip-rule="nonzero"/></clipPath><clipPath id="bcff29bcb0"><path d="M 321 235 L 349.46875 235 L 349.46875 263 L 321 263 Z M 321 235 " clip-rule="nonzero"/></clipPath><clipPath id="015ed7b378"><path d="M 25.488281 52 L 54 52 L 54 81 L 25.488281 81 Z M 25.488281 52 " clip-rule="nonzero"/></clipPath></defs><path fill="#e7f2f1" d="M 51.875 278.03125 C 51.875 287.417969 47.246094 295.710938 39.460938 295.710938 C 47.175781 295.710938 51.875 305.148438 51.875 313.449219 C 51.875 305.148438 56.585938 295.710938 64.300781 295.710938 C 56.476562 295.710938 51.875 287.417969 51.875 278.03125 " fill-opacity="1" fill-rule="nonzero"/><g clip-path="url(#711ccdc0c6)"><path fill="#e7f2f1" d="M 279.628906 296.894531 C 279.628906 306.28125 275.28125 314.574219 267.925781 314.574219 C 275.210938 314.574219 279.628906 324.042969 279.628906 332.335938 C 279.628906 324.042969 284.078125 314.574219 291.351562 314.574219 C 283.976562 314.574219 279.628906 306.28125 279.628906 296.894531 " fill-opacity="1" fill-rule="nonzero"/></g><g clip-path="url(#3bb874bfcf)"><path fill="#e7f2f1" d="M 288.679688 78.011719 C 288.679688 69.710938 293.128906 60.253906 300.410156 60.253906 C 293.027344 60.253906 288.679688 51.949219 288.679688 42.574219 C 288.679688 51.949219 284.339844 60.253906 276.976562 60.253906 C 284.257812 60.253906 288.679688 69.710938 288.679688 78.011719 " fill-opacity="1" fill-rule="nonzero"/></g><g clip-path="url(#7623936825)"><path fill="#e7f2f1" d="M 297.757812 234.726562 C 288.296875 244.183594 271.554688 244.695312 251.855469 237.828125 L 251.964844 237.578125 C 250.902344 225.007812 248.871094 214.003906 252.296875 203.261719 C 256.074219 191.496094 272.09375 170.078125 278.855469 148.132812 C 304.648438 183.835938 313.367188 219.125 297.757812 234.726562 M 281.65625 125.332031 C 281.40625 123.023438 280.964844 120.753906 280.300781 118.542969 C 271.421875 88.988281 248.820312 81.15625 232.136719 79.691406 L 232.136719 79.660156 C 206.675781 62.03125 180.890625 52.011719 159.875 51.285156 L 159.59375 51.285156 C 155.066406 51.285156 151.417969 55.0625 151.417969 59.609375 C 151.417969 64.238281 155.175781 67.992188 159.777344 67.945312 C 172.734375 67.734375 188.855469 72.804688 205.929688 82.261719 C 195.414062 85.414062 187.800781 90.070312 176.722656 90.070312 C 160.902344 90.070312 152.140625 80.582031 131.871094 79.480469 L 131.820312 79.460938 C 132.445312 78.324219 133.1875 77.242188 134.0625 76.265625 C 136.835938 73.183594 140.328125 68.09375 140.328125 61.769531 C 140.328125 51.257812 133.390625 42.574219 133.390625 42.574219 C 123.746094 58.40625 87.464844 46.527344 69.082031 69.558594 C 66.582031 72.691406 64.402344 76.496094 62.675781 81.097656 C 61.257812 84.851562 60.132812 88.523438 59.308594 92.078125 C 51.546875 124.71875 66.460938 148.644531 80.726562 163.605469 C 88.320312 179.71875 98.261719 194.296875 101.144531 203.261719 C 106.648438 220.460938 98.140625 238.273438 102 262.148438 C 104.851562 279.90625 116.164062 304.375 121.765625 315.738281 C 123.59375 319.464844 127.765625 321.574219 132.003906 320.902344 L 132.101562 320.878906 C 136.453125 320.207031 139.746094 316.8125 140.128906 312.628906 C 141.496094 298 144.78125 265.359375 147.511719 258.902344 C 151.085938 250.5 160.058594 238.242188 176.722656 238.242188 C 193.40625 238.242188 201.199219 247.730469 205.929688 258.902344 C 209.539062 267.417969 212.308594 298.339844 213.414062 312.527344 C 213.59375 314.636719 214.5 316.5625 215.90625 318.050781 C 217.320312 319.515625 219.25 320.539062 221.441406 320.902344 C 225.679688 321.574219 229.847656 319.464844 231.695312 315.738281 C 237.28125 304.375 248.589844 279.90625 251.445312 262.148438 C 251.855469 259.625 252.117188 257.1875 252.296875 254.816406 L 252.296875 254.796875 C 276.695312 262.175781 298.011719 260.398438 310.71875 247.679688 C 333.992188 224.417969 320.691406 172.449219 281.65625 125.332031 " fill-opacity="1" fill-rule="nonzero"/></g><path fill="#ffc05a" d="M 51.875 278.03125 C 51.875 287.417969 56.476562 295.710938 64.300781 295.710938 C 56.585938 295.710938 51.875 305.148438 51.875 313.449219 C 51.875 305.148438 47.175781 295.710938 39.460938 295.710938 C 47.246094 295.710938 51.875 287.417969 51.875 278.03125 " fill-opacity="1" fill-rule="nonzero"/><g clip-path="url(#f395677ad9)"><path fill="#ffc05a" d="M 279.628906 296.894531 C 279.628906 306.28125 283.976562 314.574219 291.351562 314.574219 C 284.078125 314.574219 279.628906 324.042969 279.628906 332.335938 C 279.628906 324.042969 275.210938 314.574219 267.925781 314.574219 C 275.28125 314.574219 279.628906 306.28125 279.628906 296.894531 " fill-opacity="1" fill-rule="nonzero"/></g><g clip-path="url(#1a93fabbce)"><path fill="#ffc05a" d="M 288.679688 42.574219 C 288.679688 51.949219 293.027344 60.253906 300.410156 60.253906 C 293.128906 60.253906 288.679688 69.710938 288.679688 78.011719 C 288.679688 69.710938 284.257812 60.253906 276.976562 60.253906 C 284.339844 60.253906 288.679688 51.949219 288.679688 42.574219 " fill-opacity="1" fill-rule="nonzero"/></g><path fill="#1ea6bc" d="M 225.476562 79.378906 C 217.601562 79.378906 211.386719 80.613281 205.929688 82.261719 C 188.855469 72.804688 172.734375 67.734375 159.777344 67.945312 C 155.175781 67.992188 151.417969 64.238281 151.417969 59.609375 C 151.417969 55.0625 155.066406 51.285156 159.59375 51.285156 L 159.875 51.285156 C 180.890625 52.011719 206.675781 62.03125 232.136719 79.660156 L 232.136719 79.691406 C 229.765625 79.460938 227.539062 79.378906 225.476562 79.378906 " fill-opacity="1" fill-rule="nonzero"/><path fill="#1ea6bc" d="M 281.65625 125.332031 C 320.691406 172.449219 333.992188 224.417969 310.71875 247.679688 C 298.011719 260.398438 276.695312 262.175781 252.296875 254.796875 C 233.445312 249.113281 212.75 237.960938 192.710938 222.175781 C 188.964844 219.195312 188.65625 213.542969 192.101562 210.199219 L 192.28125 210.019531 C 195.132812 207.21875 199.652344 206.988281 202.796875 209.488281 C 219.582031 222.851562 236.609375 232.558594 251.855469 237.828125 C 271.554688 244.695312 288.296875 244.183594 297.757812 234.726562 C 313.367188 219.125 304.648438 183.835938 278.855469 148.132812 C 281.226562 140.441406 282.460938 132.730469 281.65625 125.332031 " fill-opacity="1" fill-rule="nonzero"/><path fill="#1ea6bc" d="M 218.738281 177.179688 C 218.738281 177.179688 211.175781 190.148438 191.839844 198.070312 C 191.839844 198.070312 194.027344 186.476562 182.328125 176.304688 C 170.625 166.09375 98.191406 143.375 79.78125 126.386719 C 61.339844 109.398438 59.308594 92.078125 59.308594 92.078125 C 60.132812 88.523438 61.257812 84.851562 62.675781 81.097656 C 64.402344 76.496094 66.582031 72.691406 69.082031 69.558594 C 74.09375 100.222656 109.945312 129.992188 176.671875 158.90625 L 176.722656 158.925781 C 199.140625 173.394531 218.738281 177.179688 218.738281 177.179688 " fill-opacity="1" fill-rule="nonzero"/><g clip-path="url(#21a6602934)"><path fill="#6fceae" d="M 154.121094 140.753906 C 161.542969 148.152344 169.257812 154.117188 176.671875 158.90625 C 109.945312 129.992188 74.09375 100.222656 69.082031 69.558594 C 87.464844 46.527344 123.746094 58.40625 133.390625 42.574219 C 133.390625 42.574219 140.328125 51.257812 140.328125 61.769531 C 140.328125 68.09375 136.835938 73.183594 134.0625 76.265625 C 133.1875 77.242188 132.445312 78.324219 131.820312 79.460938 C 130.746094 81.558594 130.125 83.898438 130.105469 86.296875 C 129.945312 97.21875 132.695312 119.46875 154.121094 140.753906 " fill-opacity="1" fill-rule="nonzero"/></g><path fill="#6fceae" d="M 182.328125 176.304688 C 194.027344 186.476562 191.839844 198.070312 191.839844 198.070312 C 184.847656 200.972656 176.28125 203.160156 165.992188 203.855469 C 127.300781 206.476562 96.566406 180.210938 80.726562 163.605469 C 66.460938 148.644531 51.546875 124.71875 59.308594 92.078125 C 59.308594 92.078125 61.339844 109.398438 79.78125 126.386719 C 98.191406 143.375 170.625 166.09375 182.328125 176.304688 " fill-opacity="1" fill-rule="nonzero"/><path fill="#e7f2f1" d="M 176.722656 90.070312 C 187.800781 90.070312 195.414062 85.414062 205.929688 82.261719 C 211.386719 80.613281 217.601562 79.378906 225.476562 79.378906 C 227.539062 79.378906 229.765625 79.460938 232.136719 79.691406 C 248.820312 81.15625 271.421875 88.988281 280.300781 118.542969 C 280.964844 120.753906 281.40625 123.023438 281.65625 125.332031 C 282.460938 132.730469 281.226562 140.441406 278.855469 148.132812 C 272.09375 170.078125 256.074219 191.496094 252.296875 203.261719 C 248.871094 214.003906 250.902344 225.007812 251.964844 237.578125 L 251.855469 237.828125 C 236.609375 232.558594 219.582031 222.851562 202.796875 209.488281 C 199.652344 206.988281 195.132812 207.21875 192.28125 210.019531 L 192.101562 210.199219 C 188.65625 213.542969 188.964844 219.195312 192.710938 222.175781 C 212.75 237.960938 233.445312 249.113281 252.296875 254.796875 L 252.296875 254.816406 C 252.117188 257.1875 251.855469 259.625 251.445312 262.148438 C 248.589844 279.90625 237.28125 304.375 231.695312 315.738281 C 229.847656 319.464844 225.679688 321.574219 221.441406 320.902344 C 219.25 320.539062 217.320312 319.515625 215.90625 318.050781 C 214.5 316.5625 213.59375 314.636719 213.414062 312.527344 C 212.308594 298.339844 209.539062 267.417969 205.929688 258.902344 C 201.199219 247.730469 193.40625 238.242188 176.722656 238.242188 C 160.058594 238.242188 151.085938 250.5 147.511719 258.902344 C 144.78125 265.359375 141.496094 298 140.128906 312.628906 C 139.746094 316.8125 136.453125 320.207031 132.101562 320.878906 L 132.003906 320.902344 C 127.765625 321.574219 123.59375 319.464844 121.765625 315.738281 C 116.164062 304.375 104.851562 279.90625 102 262.148438 C 98.140625 238.273438 106.648438 220.460938 101.144531 203.261719 C 98.261719 194.296875 88.320312 179.71875 80.726562 163.605469 C 96.566406 180.210938 127.300781 206.476562 165.992188 203.855469 C 176.28125 203.160156 184.847656 200.972656 191.839844 198.070312 C 211.175781 190.148438 218.738281 177.179688 218.738281 177.179688 C 218.738281 177.179688 199.140625 173.394531 176.722656 158.925781 L 176.671875 158.90625 C 169.257812 154.117188 161.542969 148.152344 154.121094 140.753906 C 132.695312 119.46875 129.945312 97.21875 130.105469 86.296875 C 130.125 83.898438 130.746094 81.558594 131.820312 79.460938 L 131.871094 79.480469 C 152.140625 80.582031 160.902344 90.070312 176.722656 90.070312 " fill-opacity="1" fill-rule="nonzero"/><path fill="#d6eae8" d="M 192.359375 102.863281 C 183.511719 102.863281 176.21875 101.546875 168.03125 97.742188 C 166.746094 97.148438 166.183594 95.625 166.789062 94.328125 C 167.378906 93.042969 168.90625 92.480469 170.203125 93.082031 C 180.949219 98.074219 189.820312 98.355469 204.503906 97.097656 C 205.921875 96.957031 207.167969 98.023438 207.289062 99.4375 C 207.40625 100.855469 206.351562 102.097656 204.945312 102.21875 C 200.328125 102.613281 196.199219 102.863281 192.359375 102.863281 " fill-opacity="1" fill-rule="nonzero"/><path fill="#c2dedb" d="M 130.4375 321.03125 C 130.957031 321.03125 131.480469 320.980469 132.003906 320.902344 C 131.480469 320.980469 130.957031 321.03125 130.4375 321.03125 M 223.007812 321.03125 C 226.664062 321.019531 230.058594 319.011719 231.6875 315.769531 C 230.058594 319.011719 226.664062 321.019531 223.007812 321.03125 M 121.789062 315.769531 C 121.777344 315.761719 121.777344 315.75 121.765625 315.738281 C 121.777344 315.75 121.777344 315.761719 121.789062 315.769531 M 192.28125 210.019531 C 193.808594 208.523438 195.816406 207.761719 197.835938 207.761719 C 195.816406 207.761719 193.808594 208.523438 192.28125 210.019531 M 202.796875 209.488281 C 202.789062 209.476562 202.777344 209.46875 202.765625 209.46875 C 202.777344 209.46875 202.789062 209.476562 202.796875 209.488281 M 160.609375 204.035156 C 162.097656 204.035156 163.59375 203.996094 165.101562 203.914062 C 165.402344 203.894531 165.691406 203.875 165.992188 203.855469 C 164.1875 203.976562 162.386719 204.035156 160.609375 204.035156 M 80.976562 163.867188 C 80.976562 163.855469 80.964844 163.84375 80.957031 163.835938 C 80.964844 163.84375 80.976562 163.855469 80.976562 163.867188 M 80.957031 163.835938 C 80.9375 163.824219 80.925781 163.816406 80.914062 163.796875 C 80.925781 163.816406 80.9375 163.824219 80.957031 163.835938 M 80.894531 163.785156 C 80.886719 163.773438 80.886719 163.765625 80.875 163.753906 C 80.886719 163.765625 80.886719 163.773438 80.894531 163.785156 M 80.855469 163.734375 C 80.84375 163.726562 80.835938 163.714844 80.824219 163.703125 C 80.835938 163.714844 80.84375 163.726562 80.855469 163.734375 M 80.785156 163.664062 C 80.765625 163.644531 80.746094 163.625 80.726562 163.605469 C 80.734375 163.605469 80.734375 163.605469 80.734375 163.605469 C 80.746094 163.625 80.765625 163.644531 80.785156 163.664062 M 281.65625 125.332031 C 281.40625 123.042969 280.976562 120.792969 280.3125 118.605469 C 280.976562 120.792969 281.40625 123.042969 281.65625 125.332031 " fill-opacity="1" fill-rule="nonzero"/><path fill="#1998ab" d="M 191.839844 198.070312 C 211.042969 190.210938 218.636719 177.347656 218.738281 177.179688 C 218.636719 177.347656 211.042969 190.210938 191.839844 198.070312 " fill-opacity="1" fill-rule="nonzero"/><path fill="#5dbd9e" d="M 160.609375 204.035156 C 160.480469 204.035156 160.347656 204.035156 160.21875 204.035156 C 160.347656 204.035156 160.480469 204.035156 160.609375 204.035156 C 162.097656 204.035156 163.59375 203.996094 165.101562 203.914062 C 163.59375 203.996094 162.097656 204.035156 160.609375 204.035156 M 95.890625 177.761719 C 90.035156 172.941406 85.035156 168.101562 80.976562 163.867188 C 80.976562 163.855469 80.964844 163.84375 80.957031 163.835938 C 80.9375 163.824219 80.925781 163.816406 80.914062 163.796875 C 80.90625 163.796875 80.90625 163.785156 80.894531 163.785156 C 80.886719 163.773438 80.886719 163.765625 80.875 163.753906 C 80.867188 163.753906 80.867188 163.746094 80.855469 163.734375 C 80.84375 163.726562 80.835938 163.714844 80.824219 163.703125 C 80.804688 163.683594 80.796875 163.675781 80.785156 163.664062 C 80.765625 163.644531 80.746094 163.625 80.726562 163.605469 C 80.734375 163.605469 80.726562 163.605469 80.726562 163.605469 C 84.824219 167.902344 89.914062 172.839844 95.890625 177.761719 " fill-opacity="1" fill-rule="nonzero"/><path fill="#c2dedb" d="M 223.007812 321.03125 C 222.484375 321.03125 221.960938 320.980469 221.441406 320.902344 C 219.25 320.539062 217.320312 319.515625 215.90625 318.050781 C 214.5 316.5625 213.59375 314.636719 213.414062 312.527344 C 212.308594 298.339844 209.539062 267.417969 205.929688 258.902344 C 201.199219 247.730469 193.40625 238.242188 176.722656 238.242188 C 160.058594 238.242188 151.085938 250.5 147.511719 258.902344 C 144.78125 265.359375 141.496094 298 140.128906 312.628906 C 140.117188 312.789062 140.097656 312.9375 140.078125 313.089844 C 139.496094 317.066406 136.292969 320.238281 132.101562 320.878906 L 132.003906 320.902344 C 131.480469 320.980469 130.957031 321.03125 130.4375 321.03125 C 126.78125 321.03125 123.394531 319.011719 121.789062 315.769531 C 121.777344 315.761719 121.777344 315.75 121.765625 315.738281 C 121.726562 315.660156 121.695312 315.578125 121.65625 315.5 C 116.011719 304.042969 104.832031 279.785156 102 262.148438 C 101.234375 257.4375 100.953125 252.960938 100.953125 248.683594 C 100.953125 236.90625 103.0625 226.59375 103.0625 216.886719 C 103.054688 212.238281 102.570312 207.730469 101.144531 203.261719 C 101.066406 203.011719 100.976562 202.75 100.882812 202.488281 C 97.710938 193.464844 88.097656 179.265625 80.734375 163.605469 C 80.726562 163.605469 80.726562 163.605469 80.726562 163.605469 C 80.746094 163.625 80.765625 163.644531 80.785156 163.664062 C 80.796875 163.675781 80.804688 163.683594 80.824219 163.703125 C 80.835938 163.714844 80.84375 163.726562 80.855469 163.734375 C 80.867188 163.746094 80.867188 163.753906 80.875 163.753906 C 80.886719 163.765625 80.886719 163.773438 80.894531 163.785156 C 80.90625 163.785156 80.90625 163.796875 80.914062 163.796875 C 80.925781 163.816406 80.9375 163.824219 80.957031 163.835938 C 80.964844 163.84375 80.976562 163.855469 80.976562 163.867188 C 85.035156 168.101562 90.035156 172.941406 95.890625 177.761719 C 111.832031 190.902344 134.042969 203.90625 160.21875 204.035156 C 160.347656 204.035156 160.480469 204.035156 160.609375 204.035156 C 162.386719 204.035156 164.1875 203.976562 165.992188 203.855469 C 176.28125 203.160156 184.847656 200.972656 191.839844 198.070312 C 211.042969 190.210938 218.636719 177.347656 218.738281 177.179688 C 218.738281 177.179688 220.585938 177.429688 223.648438 177.429688 C 237.289062 177.429688 274.96875 172.480469 280.300781 118.542969 C 280.300781 118.566406 280.3125 118.585938 280.3125 118.605469 C 280.976562 120.792969 281.40625 123.042969 281.65625 125.332031 C 281.828125 126.847656 281.898438 128.382812 281.898438 129.921875 C 281.898438 135.894531 280.742188 142.019531 278.855469 148.132812 C 272.09375 170.078125 256.074219 191.496094 252.296875 203.261719 C 250.871094 207.71875 250.398438 212.226562 250.390625 216.867188 C 250.390625 223.414062 251.34375 230.21875 251.964844 237.578125 L 251.855469 237.828125 C 236.609375 232.558594 219.582031 222.851562 202.796875 209.488281 C 202.789062 209.476562 202.777344 209.46875 202.765625 209.46875 C 201.320312 208.324219 199.582031 207.761719 197.84375 207.761719 C 197.835938 207.761719 197.835938 207.761719 197.835938 207.761719 C 195.816406 207.761719 193.808594 208.523438 192.28125 210.019531 L 192.101562 210.199219 C 190.484375 211.765625 189.699219 213.835938 189.699219 215.902344 C 189.699219 218.25 190.714844 220.589844 192.710938 222.175781 C 212.75 237.960938 233.445312 249.113281 252.296875 254.796875 L 252.296875 254.816406 C 252.117188 257.1875 251.855469 259.625 251.445312 262.148438 C 248.609375 279.785156 237.429688 304.042969 231.816406 315.5 C 231.777344 315.578125 231.734375 315.660156 231.695312 315.738281 C 231.695312 315.75 231.6875 315.761719 231.6875 315.769531 C 230.058594 319.011719 226.664062 321.019531 223.007812 321.03125 " fill-opacity="1" fill-rule="nonzero"/><path fill="#f48ca7" d="M 293.128906 216.445312 L 284.460938 216.445312 L 284.460938 207.808594 C 284.460938 206.394531 283.316406 205.238281 281.890625 205.238281 C 280.472656 205.238281 279.316406 206.394531 279.316406 207.808594 L 279.316406 216.445312 L 270.679688 216.445312 C 269.261719 216.445312 268.109375 217.597656 268.109375 219.015625 C 268.109375 220.441406 269.261719 221.585938 270.679688 221.585938 L 279.316406 221.585938 L 279.316406 230.25 C 279.316406 231.664062 280.472656 232.820312 281.890625 232.820312 C 283.316406 232.820312 284.460938 231.664062 284.460938 230.25 L 284.460938 221.585938 L 293.128906 221.585938 C 294.546875 221.585938 295.699219 220.441406 295.699219 219.015625 C 295.699219 217.597656 294.546875 216.445312 293.128906 216.445312 " fill-opacity="1" fill-rule="nonzero"/><g clip-path="url(#bcff29bcb0)"><path fill="#f48ca7" d="M 346.898438 246.261719 L 338.257812 246.261719 L 338.257812 237.628906 C 338.257812 236.203125 337.105469 235.058594 335.6875 235.058594 C 334.273438 235.058594 333.117188 236.203125 333.117188 237.628906 L 333.117188 246.261719 L 324.449219 246.261719 C 323.03125 246.261719 321.875 247.417969 321.875 248.832031 C 321.875 250.25 323.03125 251.402344 324.449219 251.402344 L 333.117188 251.402344 L 333.117188 260.066406 C 333.117188 261.484375 334.273438 262.636719 335.6875 262.636719 C 337.105469 262.636719 338.257812 261.484375 338.257812 260.066406 L 338.257812 251.402344 L 346.898438 251.402344 C 348.3125 251.402344 349.46875 250.25 349.46875 248.832031 C 349.46875 247.417969 348.3125 246.261719 346.898438 246.261719 " fill-opacity="1" fill-rule="nonzero"/></g><path fill="#f48ca7" d="M 78.777344 205.238281 L 70.136719 205.238281 L 70.136719 196.605469 C 70.136719 195.191406 68.984375 194.035156 67.566406 194.035156 C 66.140625 194.035156 64.996094 195.191406 64.996094 196.605469 L 64.996094 205.238281 L 56.355469 205.238281 C 54.929688 205.238281 53.785156 206.394531 53.785156 207.808594 C 53.785156 209.234375 54.929688 210.378906 56.355469 210.378906 L 64.996094 210.378906 L 64.996094 219.015625 C 64.996094 220.441406 66.140625 221.585938 67.566406 221.585938 C 68.984375 221.585938 70.136719 220.441406 70.136719 219.015625 L 70.136719 210.378906 L 78.777344 210.378906 C 80.191406 210.378906 81.347656 209.234375 81.347656 207.808594 C 81.347656 206.394531 80.191406 205.238281 78.777344 205.238281 " fill-opacity="1" fill-rule="nonzero"/><g clip-path="url(#015ed7b378)"><path fill="#f48ca7" d="M 50.492188 64.1875 L 41.820312 64.1875 L 41.820312 55.554688 C 41.820312 54.128906 40.675781 52.984375 39.25 52.984375 C 37.835938 52.984375 36.679688 54.128906 36.679688 55.554688 L 36.679688 64.1875 L 28.039062 64.1875 C 26.625 64.1875 25.46875 65.34375 25.46875 66.757812 C 25.46875 68.175781 26.625 69.328125 28.039062 69.328125 L 36.679688 69.328125 L 36.679688 77.964844 C 36.679688 79.378906 37.835938 80.535156 39.25 80.535156 C 40.675781 80.535156 41.820312 79.378906 41.820312 77.964844 L 41.820312 69.328125 L 50.492188 69.328125 C 51.90625 69.328125 53.0625 68.175781 53.0625 66.757812 C 53.0625 65.34375 51.90625 64.1875 50.492188 64.1875 " fill-opacity="1" fill-rule="nonzero"/></g><path fill="#f48ca7" d="M 317.609375 117.933594 L 308.9375 117.933594 L 308.9375 109.296875 C 308.9375 107.871094 307.792969 106.726562 306.367188 106.726562 C 304.953125 106.726562 303.796875 107.871094 303.796875 109.296875 L 303.796875 117.933594 L 295.15625 117.933594 C 293.742188 117.933594 292.585938 119.085938 292.585938 120.503906 C 292.585938 121.917969 293.742188 123.074219 295.15625 123.074219 L 303.796875 123.074219 L 303.796875 131.707031 C 303.796875 133.121094 304.953125 134.277344 306.367188 134.277344 C 307.792969 134.277344 308.9375 133.121094 308.9375 131.707031 L 308.9375 123.074219 L 317.609375 123.074219 C 319.023438 123.074219 320.179688 121.917969 320.179688 120.503906 C 320.179688 119.085938 319.023438 117.933594 317.609375 117.933594 " fill-opacity="1" fill-rule="nonzero"/></svg>