<svg xmlns="http://www.w3.org/2000/svg" xmlns:xlink="http://www.w3.org/1999/xlink" width="500" zoomAndPan="magnify" viewBox="0 0 375 374.999991" height="500" preserveAspectRatio="xMidYMid meet" version="1.0"><defs><clipPath id="9fffc52355"><path d="M 55.703125 70 L 321 70 L 321 326.25 L 55.703125 326.25 Z M 55.703125 70 " clip-rule="nonzero"/></clipPath><clipPath id="892bd93e8e"><path d="M 318 51 L 337.703125 51 L 337.703125 69 L 318 69 Z M 318 51 " clip-rule="nonzero"/></clipPath><clipPath id="229698080c"><path d="M 310 37.5 L 321 37.5 L 321 60 L 310 60 Z M 310 37.5 " clip-rule="nonzero"/></clipPath></defs><path fill="#fefdfd" d="M 164.910156 83.433594 C 164.910156 83.433594 95.925781 101.1875 90.332031 116.4375 C 84.742188 131.691406 85.671875 155.828125 83.519531 162.1875 C 81.363281 168.546875 104.800781 168.851562 104.800781 168.851562 L 124.144531 282.746094 C 124.144531 282.746094 123.65625 320.929688 133.328125 320.929688 C 143 320.929688 153.617188 317.546875 151.691406 297.730469 C 149.765625 277.910156 166.742188 235.375 182.429688 241.171875 C 198.117188 246.972656 203.921875 276.945312 203.921875 276.945312 C 203.921875 276.945312 207.660156 323.832031 215.941406 320.929688 C 224.226562 318.03125 239.160156 312.347656 240.636719 302.863281 C 242.117188 293.378906 263.390625 208.789062 263.390625 208.789062 L 272.398438 120.886719 C 272.398438 120.886719 270.074219 103.484375 260.207031 92.085938 C 250.335938 80.691406 206.128906 81.910156 206.128906 81.910156 C 206.128906 81.910156 193.105469 68.773438 164.910156 83.433594 Z M 164.910156 83.433594 " fill-opacity="1" fill-rule="nonzero"/><path fill="#050606" d="M 143.96875 128.394531 C 143.96875 128.394531 143.464844 152.628906 151.691406 157.746094 C 159.921875 162.867188 154.679688 171.652344 154.679688 171.652344 C 154.679688 171.652344 166.832031 213.136719 188.277344 200.570312 C 209.722656 188 203.921875 161.078125 203.921875 161.078125 C 203.921875 161.078125 217.457031 151.265625 220.359375 149.816406 C 223.261719 148.363281 213.480469 128.394531 213.480469 128.394531 L 195.210938 126.753906 L 167.351562 134.945312 Z M 143.96875 128.394531 " fill-opacity="1" fill-rule="nonzero"/><g clip-path="url(#9fffc52355)"><path fill="#fefdfd" d="M 272.398438 120.886719 C 273.019531 122.917969 273.128906 125.042969 273.542969 127.113281 C 273.769531 128.25 274.105469 129.378906 274.273438 130.496094 C 274.636719 132.898438 275.496094 135.214844 275.484375 137.691406 C 275.480469 139.285156 275.75 140.875 275.824219 142.480469 C 276.089844 148.214844 275.84375 153.921875 275.324219 159.625 C 275.21875 160.792969 275.320312 161.921875 275.539062 163.160156 C 275.878906 162.960938 276.1875 162.839844 276.414062 162.632812 C 279.214844 160.070312 282.089844 157.601562 284.777344 154.90625 C 286.6875 152.992188 287.984375 150.519531 290.292969 148.996094 C 290.449219 148.890625 290.601562 148.738281 290.675781 148.570312 C 291.714844 146.234375 293.75 144.617188 295.054688 142.464844 C 295.675781 141.441406 296.550781 140.582031 297.261719 139.59375 C 299.222656 136.878906 300.429688 133.84375 301.4375 130.722656 C 302.636719 126.996094 303.457031 123.1875 303.863281 119.265625 C 304.121094 116.78125 304.519531 114.296875 304.734375 111.808594 C 305.050781 108.097656 305.890625 104.433594 305.757812 100.679688 C 305.753906 100.550781 305.773438 100.421875 305.796875 100.296875 C 305.949219 99.546875 306.542969 98.773438 306.125 98.0625 C 305.691406 97.316406 304.691406 97.269531 303.9375 97.007812 C 302.324219 96.449219 301.289062 95.480469 300.925781 93.796875 C 300.738281 92.910156 300.207031 92.15625 299.898438 91.304688 C 299.0625 88.976562 299.699219 86.671875 300.007812 84.421875 C 300.265625 82.539062 300.367188 80.6875 300.179688 78.847656 C 299.921875 76.316406 300.542969 74.140625 302.097656 72.167969 C 302.894531 71.15625 303.761719 70.382812 305.1875 70.570312 C 305.621094 70.628906 306.082031 70.488281 306.527344 70.4375 C 307.433594 70.332031 308.15625 70.660156 308.769531 71.324219 C 310 72.65625 310.738281 74.167969 310.691406 76.023438 C 310.667969 76.984375 310.398438 78.152344 310.976562 78.847656 C 311.601562 79.59375 312.78125 78.972656 313.714844 79.058594 C 314.421875 79.125 315.136719 79.046875 315.84375 79.097656 C 318.8125 79.324219 319.964844 80.453125 320.371094 82.933594 C 320.570312 84.140625 320.726562 85.378906 320.671875 86.589844 C 320.585938 88.546875 320.867188 90.480469 320.214844 92.480469 C 319.472656 94.757812 317.996094 96.007812 315.9375 96.457031 C 314.253906 96.820312 312.613281 97.429688 310.898438 97.4375 C 309.878906 101.355469 310.070312 105.292969 309.648438 109.167969 C 309.28125 112.558594 308.785156 115.9375 308.453125 119.335938 C 308.203125 121.902344 307.589844 124.398438 307.222656 126.9375 C 306.695312 130.617188 305.304688 134.003906 303.855469 137.332031 C 302.617188 140.179688 301.140625 142.972656 298.914062 145.289062 C 297.722656 146.53125 296.808594 148.039062 295.78125 149.433594 C 292.566406 153.789062 288.789062 157.625 284.816406 161.289062 C 281.882812 163.996094 278.886719 166.613281 275.46875 168.691406 C 274.523438 169.265625 274.34375 170.160156 274.398438 171.011719 C 274.523438 172.914062 274.050781 174.699219 273.746094 176.539062 C 273.421875 178.5 273.738281 180.570312 273.34375 182.507812 C 272.824219 185.085938 272.558594 187.703125 272.152344 190.289062 C 271.820312 192.414062 270.929688 194.414062 271.019531 196.6875 C 271.082031 198.269531 270.503906 199.957031 270.199219 201.59375 C 269.554688 205.066406 268.648438 208.484375 268.011719 211.964844 C 267.640625 213.976562 267.335938 216.023438 266.640625 217.976562 C 265.488281 221.199219 265.148438 224.621094 264.320312 227.921875 C 264.148438 228.613281 264.039062 229.3125 263.714844 229.949219 C 262.882812 231.578125 262.292969 233.253906 262.304688 235.121094 C 262.304688 235.617188 262.105469 236.136719 261.90625 236.601562 C 261.417969 237.738281 261.097656 238.910156 260.929688 240.132812 C 260.789062 241.15625 260.613281 242.179688 259.988281 243.050781 C 259.671875 243.492188 259.652344 244.003906 259.597656 244.523438 C 259.421875 246.191406 259.207031 247.851562 259.003906 249.515625 C 258.933594 250.105469 258.730469 250.667969 258.355469 251.113281 C 257.472656 252.15625 257.199219 253.449219 257.0625 254.703125 C 256.855469 256.578125 256.398438 258.363281 255.851562 260.152344 C 255.574219 261.066406 255.566406 262.0625 255.40625 263.015625 C 254.773438 266.8125 253.59375 270.488281 252.90625 274.28125 C 252.636719 275.773438 251.867188 277.167969 251.507812 278.683594 C 250.355469 283.5625 248.914062 288.347656 247.21875 293.074219 C 246.4375 295.25 245.773438 297.4375 244.589844 299.429688 C 244.527344 299.539062 244.472656 299.664062 244.441406 299.789062 C 243.164062 304.875 240.824219 309.523438 238.265625 314.042969 C 237.210938 315.910156 235.894531 317.726562 233.910156 318.847656 C 233.457031 319.101562 233.070312 319.445312 232.765625 319.875 C 232.617188 320.085938 232.492188 320.371094 232.285156 320.472656 C 230.410156 321.402344 229.003906 323.023438 226.941406 323.742188 C 224.8125 324.480469 222.679688 325.203125 220.53125 325.886719 C 219.71875 326.144531 218.914062 326.257812 218.058594 326.1875 C 215.285156 325.953125 212.539062 325.617188 210.121094 324.082031 C 208.097656 322.792969 206.324219 321.179688 204.691406 319.449219 C 203.507812 318.195312 202.46875 316.761719 201.550781 315.292969 C 200.042969 312.882812 199.128906 310.195312 198.402344 307.453125 C 198.105469 306.328125 197.695312 305.1875 197.683594 304.050781 C 197.660156 302.15625 197.398438 300.226562 197.535156 298.394531 C 197.703125 296.152344 197.757812 293.894531 197.960938 291.652344 C 198.125 289.804688 197.941406 287.925781 197.875 286.0625 C 197.757812 282.90625 197.40625 279.757812 197.679688 276.59375 C 197.710938 276.21875 197.613281 275.824219 197.527344 275.449219 C 196.867188 272.621094 196.769531 269.714844 196.507812 266.84375 C 196.167969 263.128906 194.46875 260.027344 192.34375 257.253906 C 189.730469 253.84375 185.914062 252.292969 181.601562 251.898438 C 179.425781 251.699219 177.328125 252 175.308594 252.605469 C 174.0625 252.980469 172.886719 253.742188 171.945312 254.742188 C 169.273438 257.570312 167.148438 260.722656 165.570312 264.3125 C 164.292969 267.226562 163.417969 270.1875 163.226562 273.351562 C 163.140625 274.773438 162.484375 276.039062 162.269531 277.453125 C 161.929688 279.667969 161.671875 281.917969 161.144531 284.101562 C 160.957031 284.871094 160.992188 285.636719 160.902344 286.398438 C 160.628906 288.683594 160.566406 290.949219 159.839844 293.21875 C 159.25 295.054688 159.71875 297.203125 159.347656 299.144531 C 158.785156 302.097656 158.8125 305.171875 157.585938 307.996094 C 157.226562 308.820312 156.972656 309.699219 156.785156 310.582031 C 156.523438 311.808594 156.703125 313.191406 155.144531 313.800781 C 154.847656 313.917969 154.757812 314.578125 154.59375 314.996094 C 154.074219 316.324219 153.449219 317.597656 152.652344 318.777344 C 152.367188 319.203125 152.09375 319.699219 151.6875 319.976562 C 149.675781 321.355469 147.777344 322.90625 145.550781 323.964844 C 142.054688 325.632812 138.375 325.585938 134.648438 325.203125 C 133.878906 325.121094 133.105469 325.003906 132.335938 324.988281 C 131.269531 324.96875 130.285156 324.742188 129.421875 324.105469 C 127.910156 322.988281 126.023438 322.640625 124.476562 321.503906 C 121.734375 319.488281 119.714844 316.84375 118.390625 313.890625 C 117.292969 311.4375 115.988281 308.96875 115.675781 306.148438 C 115.484375 304.429688 114.382812 302.933594 113.601562 301.378906 C 113.253906 300.683594 112.910156 300.007812 112.695312 299.25 C 112.046875 296.96875 111.09375 294.773438 110.714844 292.414062 C 110.421875 290.601562 109.488281 289.011719 108.746094 287.410156 C 107.765625 285.285156 107.355469 283.003906 106.488281 280.855469 C 105.898438 279.386719 105.6875 277.65625 105.292969 276.042969 C 104.558594 273.042969 103.789062 270.0625 102.738281 267.15625 C 102.429688 266.304688 102.246094 265.417969 102.203125 264.503906 C 102.1875 264.121094 102.203125 263.714844 102.09375 263.355469 C 101.066406 259.992188 100.726562 256.421875 99.496094 253.15625 C 98.46875 250.414062 98.457031 247.441406 97.171875 244.808594 C 97.003906 244.464844 96.855469 244.109375 96.667969 243.6875 C 95.308594 244.25 94.027344 244.960938 93.101562 245.980469 C 91.757812 247.457031 90.050781 247.902344 88.273438 248.058594 C 85.542969 248.300781 83.027344 247.65625 81.027344 245.59375 C 80.355469 244.898438 79.546875 244.335938 78.90625 243.617188 C 76.777344 241.21875 77.03125 237 79.078125 234.503906 C 80.433594 232.847656 81.835938 231.300781 83.808594 230.324219 C 84.707031 229.878906 85.453125 229.117188 86.496094 228.332031 C 85.074219 227.855469 83.910156 227.292969 82.691406 227.105469 C 81.035156 226.847656 79.492188 226.101562 77.796875 226.070312 C 76.785156 226.050781 76.054688 225.289062 75.125 225 C 71.320312 223.804688 67.972656 221.703125 64.992188 219.144531 C 62.414062 216.933594 60.246094 214.316406 58.878906 211.066406 C 57.257812 207.222656 56.421875 203.265625 56.007812 199.132812 C 55.730469 196.390625 55.871094 193.6875 56.488281 191.105469 C 57.257812 187.894531 58.089844 184.648438 59.511719 181.613281 C 59.984375 180.605469 60.628906 179.738281 61.34375 178.902344 C 61.804688 178.363281 62.304688 177.84375 62.667969 177.246094 C 64.097656 174.890625 66.117188 173.136719 68.234375 171.433594 C 69.894531 170.097656 71.464844 168.632812 73.355469 167.65625 C 76.316406 166.125 78.886719 163.882812 82.128906 162.867188 C 82.617188 162.714844 83.058594 162.421875 83.519531 162.1875 C 84.3125 161.785156 84.960938 161.34375 84.539062 160.25 C 84.328125 159.707031 84.46875 159.097656 84.671875 158.539062 C 84.917969 157.855469 84.984375 157.128906 84.859375 156.4375 C 84.4375 154.097656 85.15625 151.824219 85.257812 149.515625 C 85.382812 146.714844 85.960938 143.929688 86.34375 141.140625 C 87.570312 139.570312 89.316406 138.796875 91.0625 137.988281 C 94.277344 136.503906 97.507812 135.0625 100.691406 133.5 C 103.957031 131.894531 107.5 130.871094 110.886719 129.492188 C 113.8125 128.304688 116.871094 127.476562 119.765625 126.25 C 124.710938 124.15625 129.828125 122.6875 135.03125 121.480469 C 136.285156 121.1875 137.441406 120.648438 138.742188 120.445312 C 141.597656 120.003906 144.464844 119.46875 147.242188 118.660156 C 152.070312 117.257812 156.976562 116.257812 161.910156 115.363281 C 163.414062 116.03125 164.226562 117.359375 165.054688 118.667969 C 165.363281 119.15625 165.542969 119.738281 166.050781 120.078125 C 168.121094 121.46875 169.691406 123.519531 172.023438 124.578125 C 174.003906 125.476562 175.871094 126.761719 177.9375 127.285156 C 180.339844 127.890625 182.855469 128.207031 185.367188 128.359375 C 188.78125 128.570312 192.011719 127.789062 195.210938 126.753906 C 199.164062 125.476562 202.585938 123.285156 205.347656 120.25 C 207.800781 117.550781 210.09375 114.664062 211.492188 111.207031 C 211.582031 110.976562 211.800781 110.792969 211.957031 110.589844 C 213.566406 110.539062 215.15625 110.558594 216.757812 110.851562 C 218.707031 111.210938 220.699219 111.324219 222.664062 111.605469 C 225.515625 112.011719 228.453125 111.902344 231.203125 112.964844 C 231.496094 113.078125 231.828125 113.105469 232.148438 113.136719 C 234.628906 113.371094 237.109375 113.316406 239.601562 113.886719 C 242.003906 114.441406 244.539062 114.578125 246.957031 115.121094 C 250.144531 115.839844 253.359375 116.492188 256.5625 117.074219 C 258.902344 117.5 261.128906 118.300781 263.457031 118.753906 C 265.945312 119.234375 268.59375 119.320312 270.886719 120.660156 C 271.332031 120.921875 271.878906 120.921875 272.398438 120.886719 Z M 167.351562 189.9375 C 167.363281 190.242188 167.578125 190.324219 167.828125 190.375 C 170.019531 192.527344 172.890625 193.285156 175.679688 194.234375 C 178.054688 195.039062 180.445312 194.949219 182.902344 194.710938 C 185.09375 194.5 186.957031 193.617188 188.773438 192.539062 C 192.101562 190.566406 194.757812 187.933594 196.515625 184.453125 C 197.472656 183.449219 197.957031 182.152344 198.328125 180.898438 C 199.855469 175.777344 200.375 170.59375 199.074219 165.296875 C 198.40625 162.570312 196.4375 161.664062 194.09375 163.21875 C 193.074219 163.894531 192.105469 164.636719 191.097656 165.3125 C 189.691406 166.261719 188.265625 167.132812 186.589844 167.738281 C 183.070312 169.011719 179.570312 169.21875 175.957031 168.675781 C 173.988281 168.378906 172.027344 167.886719 170.253906 167.011719 C 168.640625 166.214844 167.019531 165.449219 165.34375 164.8125 C 163.722656 164.195312 162.785156 164.613281 162.199219 166.238281 C 161.984375 166.835938 161.875 167.492188 161.835938 168.125 C 161.714844 170.246094 161.777344 172.386719 161.53125 174.488281 C 161.125 177.984375 161.804688 181.285156 162.984375 184.523438 C 163.820312 186.828125 165.449219 188.527344 167.371094 189.976562 Z M 85.015625 167.230469 C 82.023438 167.707031 79.917969 169.503906 77.621094 170.871094 C 76.207031 171.710938 74.585938 172.25 73.417969 173.511719 C 72.851562 174.125 72.230469 174.726562 71.527344 175.15625 C 68.148438 177.226562 66.304688 180.578125 64.207031 183.726562 C 62.941406 185.621094 62.722656 187.8125 62.148438 189.921875 C 61.03125 194.023438 60.671875 198.128906 61.542969 202.304688 C 61.871094 203.875 62.203125 205.464844 62.742188 206.972656 C 64.003906 210.476562 66.011719 213.449219 69.125 215.648438 C 70.28125 216.464844 71.566406 217.105469 72.636719 217.976562 C 74.246094 219.285156 76.113281 219.859375 77.960938 220.582031 C 80.667969 221.640625 83.617188 221.757812 86.324219 222.816406 C 87.640625 223.332031 89.019531 223.683594 90.359375 224.144531 C 91.035156 224.378906 91.6875 224.546875 92.441406 224.300781 C 92.089844 223.082031 92.164062 221.925781 92.085938 220.78125 C 92.054688 220.269531 92.078125 219.765625 91.894531 219.261719 C 90.859375 216.386719 91.085938 213.273438 90.25 210.355469 C 90.195312 210.175781 90.230469 209.96875 90.246094 209.777344 C 90.425781 207.828125 89.800781 205.960938 89.683594 204.039062 C 89.535156 201.601562 88.921875 199.21875 88.707031 196.78125 C 88.59375 195.496094 88.796875 194.175781 88.535156 192.957031 C 88.152344 191.191406 87.976562 189.402344 87.644531 187.644531 C 86.894531 183.65625 86.679688 179.613281 86.152344 175.605469 C 85.96875 174.214844 85.707031 172.824219 85.519531 171.4375 C 85.332031 170.066406 85.417969 168.628906 85.015625 167.230469 Z M 257.777344 215.957031 C 257.71875 214.90625 257.714844 213.886719 257.191406 212.925781 C 256.832031 212.261719 256.398438 211.707031 255.597656 211.695312 C 254.707031 211.683594 254.214844 212.277344 253.902344 213.050781 C 252.964844 215.375 252.316406 217.816406 251.664062 220.210938 C 250.742188 223.609375 250.195312 227.121094 249.195312 230.515625 C 248.578125 232.601562 247.886719 234.652344 247.398438 236.789062 C 246.757812 239.574219 246.183594 242.460938 244.855469 245.070312 C 244.613281 245.542969 244.398438 246.074219 244.566406 246.558594 C 244.925781 247.589844 244.578125 248.445312 244.105469 249.308594 C 243.820312 249.832031 243.671875 250.394531 243.707031 250.984375 C 243.757812 251.839844 243.527344 252.636719 243.300781 253.449219 C 242.714844 255.546875 242.574219 257.753906 241.808594 259.808594 C 240.882812 262.292969 240.792969 264.960938 240.054688 267.484375 C 239.277344 270.144531 238.574219 272.824219 237.75 275.464844 C 237.328125 276.824219 237.414062 278.238281 237.03125 279.628906 C 236.59375 281.226562 235.96875 282.796875 235.6875 284.40625 C 235.101562 287.734375 233.300781 290.65625 232.730469 293.96875 C 232.691406 294.203125 232.449219 294.398438 232.332031 294.628906 C 231.394531 296.460938 230.316406 298.242188 229.558594 300.148438 C 228.246094 303.453125 226.421875 306.449219 224.449219 309.375 C 224.269531 309.640625 224.0625 309.894531 223.917969 310.179688 C 223.105469 311.785156 223.511719 313.6875 224.824219 314.488281 C 226.285156 315.371094 227.597656 315.0625 228.871094 313.492188 C 229.195312 313.09375 229.453125 312.640625 229.734375 312.207031 C 230.191406 311.507812 230.542969 310.707031 231.109375 310.113281 C 233.070312 308.054688 233.863281 305.335938 235.132812 302.914062 C 236.046875 301.171875 236.957031 299.382812 237.726562 297.554688 C 238.597656 295.480469 239.660156 293.464844 240.152344 291.261719 C 240.4375 289.996094 240.808594 288.773438 241.234375 287.558594 C 242.589844 283.679688 244.097656 279.839844 244.15625 275.640625 C 244.164062 275.207031 244.296875 274.722656 244.527344 274.359375 C 245.589844 272.679688 245.816406 270.710938 246.316406 268.875 C 247.171875 265.722656 247.660156 262.488281 248.589844 259.328125 C 249.507812 256.210938 250.171875 252.957031 250.648438 249.730469 C 251.132812 246.421875 252.148438 243.257812 252.878906 240.027344 C 253.445312 237.542969 253.851562 234.960938 255.011719 232.621094 C 255.175781 232.285156 255.265625 231.882812 255.292969 231.503906 C 255.539062 228.105469 257.140625 224.9375 256.957031 221.46875 C 256.949219 221.347656 257.03125 221.222656 257.050781 221.097656 C 257.296875 219.382812 257.535156 217.667969 257.777344 215.957031 Z M 196.128906 147.214844 C 197.722656 145.773438 199.066406 144.625 200.335938 143.394531 C 201.988281 141.796875 203.699219 140.230469 204.671875 138.074219 C 205.179688 136.949219 205.011719 136.097656 204.222656 135.464844 C 203.460938 134.855469 202.277344 134.699219 201.539062 135.441406 C 200.542969 136.4375 199.300781 137.175781 198.441406 138.277344 C 196.878906 140.28125 195.039062 141.917969 192.894531 143.277344 C 191.476562 144.175781 190.261719 145.351562 189.433594 146.839844 C 188.6875 148.167969 188.960938 149.503906 190.238281 150.183594 C 192.804688 151.546875 195.609375 152.257812 198.460938 152.710938 C 199.472656 152.871094 200.484375 153.007812 201.492188 153.214844 C 203.054688 153.535156 204.628906 153.820312 206.214844 153.953125 C 207.574219 154.0625 208.792969 152.972656 208.972656 151.734375 C 209.171875 150.363281 208.464844 149.5 206.773438 149.128906 C 205.585938 148.867188 204.382812 148.648438 203.1875 148.4375 C 200.945312 148.039062 198.707031 147.660156 196.128906 147.214844 Z M 154.851562 153.875 C 156.335938 153.855469 157.648438 153.59375 158.769531 152.734375 C 161.71875 150.472656 162.183594 145.941406 160.933594 143.296875 C 159.898438 141.117188 155.882812 139.265625 153.582031 139.957031 C 153.398438 140.011719 153.222656 140.089844 153.054688 140.183594 C 152.378906 140.554688 151.65625 140.863281 151.046875 141.324219 C 149.871094 142.21875 148.71875 143.339844 148.261719 144.652344 C 147.546875 146.730469 147.507812 148.964844 148.960938 150.910156 C 149.726562 151.933594 150.335938 153.171875 151.703125 153.488281 C 152.761719 153.734375 153.871094 153.761719 154.851562 153.875 Z M 216.160156 168.839844 C 218.511719 168.925781 220.75 168.609375 222.679688 167.0625 C 223.488281 166.417969 224.007812 165.664062 223.96875 164.609375 C 223.882812 162.082031 222.578125 160.042969 220.570312 158.882812 C 218.382812 157.617188 215.804688 157.316406 213.320312 158.457031 C 212.726562 158.726562 212.128906 158.886719 211.492188 159.015625 C 209.679688 159.378906 208.539062 160.542969 208.070312 162.304688 C 207.640625 163.9375 208.101562 165.28125 209.40625 166.449219 C 211.355469 168.1875 213.617188 168.839844 216.160156 168.839844 Z M 149.5 306.453125 C 149.507812 304.613281 148.441406 303.265625 146.953125 302.9375 C 145.589844 302.632812 144.496094 303.277344 143.84375 304.875 C 143.355469 306.074219 142.476562 307.023438 141.875 308.148438 C 141.550781 308.757812 140.945312 309.277344 140.234375 309.429688 C 138.421875 309.828125 136.578125 310.394531 134.730469 309.996094 C 133.59375 309.75 132.4375 309.75 131.308594 309.488281 C 130.140625 309.214844 129.164062 309.777344 128.621094 310.839844 C 128.144531 311.773438 128.289062 312.542969 129.109375 313.472656 C 129.5 313.914062 129.988281 314.210938 130.5 314.496094 C 133.371094 316.117188 136.40625 316.40625 139.613281 315.789062 C 141.421875 315.441406 143.097656 314.847656 144.496094 313.664062 C 145.574219 312.75 146.660156 311.800781 147.527344 310.699219 C 148.558594 309.386719 149.070312 307.773438 149.5 306.453125 Z M 142.152344 171.554688 C 142.796875 171.554688 143.460938 171.65625 144.085938 171.539062 C 147.039062 170.976562 149.902344 170.210938 151.316406 167.128906 C 152.03125 165.566406 151.726562 164.25 150.40625 163.15625 C 149.863281 162.703125 149.214844 162.371094 148.6875 161.90625 C 147.902344 161.214844 147.042969 161.03125 146.011719 161.085938 C 144.582031 161.160156 143.230469 161.632812 141.84375 161.792969 C 140.011719 162.007812 138.621094 162.894531 137.59375 164.214844 C 135.65625 166.710938 135.480469 169.847656 139.296875 171.398438 C 140.265625 171.789062 141.195312 171.632812 142.152344 171.554688 Z M 142.152344 171.554688 " fill-opacity="1" fill-rule="nonzero"/></g><path fill="#bab9b6" d="M 211.957031 110.589844 C 211.800781 110.792969 211.582031 110.976562 211.492188 111.207031 C 210.09375 114.664062 207.800781 117.550781 205.347656 120.25 C 202.585938 123.285156 199.164062 125.476562 195.210938 126.753906 C 192.011719 127.789062 188.78125 128.570312 185.367188 128.359375 C 182.855469 128.207031 180.339844 127.890625 177.9375 127.285156 C 175.871094 126.761719 174.003906 125.476562 172.023438 124.578125 C 169.691406 123.519531 168.121094 121.46875 166.050781 120.078125 C 165.542969 119.738281 165.363281 119.15625 165.054688 118.667969 C 164.226562 117.359375 163.414062 116.03125 161.910156 115.363281 C 162.09375 114.710938 162.011719 114.089844 161.671875 113.507812 C 160.625 111.71875 160.089844 109.738281 159.5625 107.765625 C 159.171875 106.289062 158.738281 104.78125 158.667969 103.273438 C 158.566406 101.121094 158.78125 98.949219 158.859375 96.785156 C 158.773438 95.4375 159.617188 94.359375 159.941406 93.128906 C 160.597656 90.636719 161.609375 88.296875 163.058594 86.152344 C 163.441406 85.585938 164.003906 85.0625 163.875 84.261719 C 164.335938 84.128906 164.636719 83.800781 164.910156 83.433594 C 166.589844 81.164062 168.910156 79.585938 171.246094 78.171875 C 173.582031 76.761719 176.175781 75.703125 178.914062 75.230469 C 179.871094 75.0625 180.777344 74.871094 181.679688 74.484375 C 184.4375 73.296875 187.304688 73.351562 190.175781 73.980469 C 191.683594 74.308594 193.175781 74.710938 194.664062 75.125 C 197.347656 75.871094 199.753906 77.097656 201.980469 78.832031 C 203.328125 79.886719 204.53125 81.179688 206.128906 81.910156 C 206.105469 82.375 206.214844 82.78125 206.515625 83.164062 C 208.539062 85.746094 210.402344 88.425781 211.582031 91.519531 C 211.722656 91.890625 212 92.164062 212.324219 92.386719 C 212.179688 93.316406 212.566406 94.152344 212.761719 95.027344 C 213.386719 97.789062 213.722656 100.546875 213.28125 103.410156 C 212.914062 105.820312 212.234375 108.167969 211.957031 110.589844 Z M 176.984375 102.714844 C 176.660156 103.792969 177.097656 104.65625 177.507812 105.542969 C 178.214844 107.089844 179.390625 108.289062 180.90625 108.832031 C 182.5625 109.429688 184.265625 110.164062 186.085938 110.066406 C 186.898438 110.019531 187.6875 109.605469 188.488281 109.371094 C 191.09375 108.621094 192.835938 106.941406 193.730469 104.417969 C 194.527344 102.175781 194.53125 99.839844 193.972656 97.585938 C 193.109375 94.113281 190.964844 91.742188 186.902344 91.605469 C 184.105469 91.507812 181.660156 92.691406 179.582031 94.574219 C 178.613281 95.445312 177.933594 96.457031 177.492188 97.742188 C 176.988281 99.222656 176.347656 100.609375 176.976562 102.195312 C 177.042969 102.363281 176.984375 102.578125 176.984375 102.714844 Z M 176.984375 102.714844 " fill-opacity="1" fill-rule="nonzero"/><path fill="#e5b95c" d="M 158.859375 96.785156 C 158.78125 98.949219 158.566406 101.121094 158.667969 103.273438 C 158.738281 104.78125 159.171875 106.289062 159.5625 107.765625 C 160.089844 109.738281 160.625 111.71875 161.671875 113.507812 C 162.011719 114.089844 162.09375 114.710938 161.910156 115.363281 C 156.976562 116.257812 152.070312 117.257812 147.242188 118.660156 C 144.464844 119.46875 141.597656 120.003906 138.742188 120.445312 C 137.441406 120.648438 136.285156 121.1875 135.03125 121.480469 C 129.828125 122.6875 124.710938 124.15625 119.765625 126.25 C 116.871094 127.476562 113.8125 128.304688 110.886719 129.492188 C 107.5 130.871094 103.957031 131.894531 100.691406 133.5 C 97.507812 135.0625 94.277344 136.503906 91.0625 137.988281 C 89.316406 138.796875 87.570312 139.570312 86.34375 141.140625 C 84.558594 140.90625 83.324219 139.375 83.777344 137.449219 C 84.703125 133.515625 84.765625 129.421875 86 125.554688 C 87.035156 122.324219 88.234375 119.167969 90.332031 116.4375 C 91.4375 116.351562 92.460938 116.035156 93.449219 115.511719 C 96.460938 113.90625 99.6875 112.796875 102.839844 111.507812 C 106.417969 110.042969 110.136719 109.007812 113.761719 107.691406 C 115.625 107.015625 117.550781 106.46875 119.53125 106.140625 C 121.242188 105.851562 122.929688 105.417969 124.609375 104.96875 C 128.875 103.820312 133.117188 102.578125 137.394531 101.472656 C 141.8125 100.332031 146.222656 99.140625 150.714844 98.304688 C 153.429688 97.800781 156.144531 97.292969 158.859375 96.785156 Z M 158.859375 96.785156 " fill-opacity="1" fill-rule="nonzero"/><path fill="#fefdfd" d="M 158.859375 96.785156 C 156.144531 97.292969 153.429688 97.800781 150.714844 98.304688 C 146.222656 99.140625 141.8125 100.332031 137.394531 101.472656 C 133.117188 102.578125 128.875 103.820312 124.609375 104.96875 C 122.929688 105.417969 121.242188 105.851562 119.53125 106.140625 C 117.550781 106.46875 115.625 107.015625 113.761719 107.691406 C 110.136719 109.007812 106.417969 110.042969 102.839844 111.507812 C 99.6875 112.796875 96.460938 113.90625 93.449219 115.511719 C 92.460938 116.035156 91.4375 116.351562 90.332031 116.4375 C 90.722656 114.683594 91.492188 113.046875 92.054688 111.371094 C 93.09375 108.273438 95.425781 105.886719 96.289062 102.746094 C 96.628906 101.515625 97.859375 100.898438 98.648438 99.976562 C 99.398438 99.101562 100.15625 98.25 100.851562 97.316406 C 102.421875 95.199219 104.007812 92.976562 106.132812 91.460938 C 108.621094 89.683594 110.769531 87.378906 113.777344 86.328125 C 115.539062 85.710938 116.953125 84.402344 118.558594 83.464844 C 121.378906 81.816406 124.363281 81.085938 127.527344 80.824219 C 128.949219 80.703125 130.351562 80.5625 131.691406 80.023438 C 134.183594 79.019531 136.890625 79.253906 139.472656 78.714844 C 140.628906 78.472656 141.71875 79.1875 142.84375 79.425781 C 144.667969 79.8125 146.519531 80.066406 148.339844 80.46875 C 149.460938 80.714844 150.679688 80.640625 151.574219 81.554688 C 151.660156 81.640625 151.8125 81.707031 151.925781 81.699219 C 154.746094 81.441406 157.144531 82.855469 159.703125 83.640625 C 160.269531 83.8125 160.835938 83.917969 161.417969 83.851562 C 162.28125 83.753906 163.085938 83.941406 163.875 84.261719 C 164.003906 85.0625 163.441406 85.585938 163.058594 86.152344 C 161.609375 88.296875 160.597656 90.636719 159.941406 93.128906 C 159.617188 94.359375 158.773438 95.4375 158.859375 96.785156 Z M 158.859375 96.785156 " fill-opacity="1" fill-rule="nonzero"/><path fill="#e5b95c" d="M 211.957031 110.589844 C 212.234375 108.167969 212.914062 105.820312 213.28125 103.410156 C 213.722656 100.546875 213.386719 97.789062 212.761719 95.027344 C 212.566406 94.152344 212.179688 93.316406 212.324219 92.386719 C 214.640625 92.414062 216.972656 92.378906 219.222656 91.882812 C 222.039062 91.257812 224.851562 91.925781 227.683594 91.617188 C 229.304688 91.441406 231.125 91.847656 232.851562 92.0625 C 235.765625 92.433594 238.707031 92.707031 241.554688 93.425781 C 243.695312 93.964844 245.890625 93.96875 248.023438 94.421875 C 251.792969 95.222656 255.285156 96.964844 259.070312 97.730469 C 259.253906 97.769531 259.433594 97.859375 259.601562 97.953125 C 261.394531 98.957031 263.574219 99.066406 265.238281 100.382812 C 265.40625 100.515625 265.738281 100.441406 265.996094 100.464844 C 268.785156 102.503906 269.386719 105.683594 270.027344 108.71875 C 270.628906 111.574219 271.363281 114.273438 273.117188 116.667969 C 274.628906 118.734375 274.433594 119.453125 272.398438 120.886719 C 271.878906 120.921875 271.332031 120.921875 270.886719 120.660156 C 268.59375 119.320312 265.945312 119.234375 263.457031 118.753906 C 261.128906 118.300781 258.902344 117.5 256.5625 117.074219 C 253.359375 116.492188 250.144531 115.839844 246.957031 115.121094 C 244.539062 114.578125 242.003906 114.441406 239.601562 113.886719 C 237.109375 113.316406 234.628906 113.371094 232.148438 113.136719 C 231.828125 113.105469 231.496094 113.078125 231.203125 112.964844 C 228.453125 111.902344 225.515625 112.011719 222.664062 111.605469 C 220.699219 111.324219 218.707031 111.210938 216.757812 110.851562 C 215.15625 110.558594 213.566406 110.539062 211.957031 110.589844 Z M 211.957031 110.589844 " fill-opacity="1" fill-rule="nonzero"/><path fill="#fefdfd" d="M 265.996094 100.464844 C 265.738281 100.441406 265.40625 100.515625 265.238281 100.382812 C 263.574219 99.066406 261.394531 98.957031 259.601562 97.953125 C 259.433594 97.859375 259.253906 97.769531 259.070312 97.730469 C 255.285156 96.964844 251.792969 95.222656 248.023438 94.421875 C 245.890625 93.96875 243.695312 93.964844 241.554688 93.425781 C 238.707031 92.707031 235.765625 92.433594 232.851562 92.0625 C 231.125 91.847656 229.304688 91.441406 227.683594 91.617188 C 224.851562 91.925781 222.039062 91.257812 219.222656 91.882812 C 216.972656 92.378906 214.640625 92.414062 212.324219 92.386719 C 212 92.164062 211.722656 91.890625 211.582031 91.519531 C 210.402344 88.425781 208.539062 85.746094 206.515625 83.164062 C 206.214844 82.785156 206.105469 82.375 206.128906 81.910156 C 209.472656 80.269531 213.117188 79.816406 216.714844 79.144531 C 220.082031 78.515625 223.476562 78.289062 226.875 78.03125 C 227.914062 77.953125 228.941406 77.894531 229.957031 78.078125 C 232.113281 78.46875 234.332031 78.316406 236.46875 78.734375 C 238.738281 79.175781 240.96875 79.8125 243.195312 80.433594 C 246.707031 81.410156 249.652344 83.597656 252.933594 85.078125 C 253.328125 85.253906 253.6875 85.597656 253.953125 85.945312 C 254.597656 86.792969 255.429688 87.371094 256.34375 87.875 C 257.554688 88.539062 258.519531 89.453125 259.167969 90.707031 C 259.425781 91.214844 259.785156 91.707031 260.207031 92.085938 C 262.792969 94.429688 264.089844 97.65625 265.996094 100.464844 Z M 265.996094 100.464844 " fill-opacity="1" fill-rule="nonzero"/><g clip-path="url(#892bd93e8e)"><path fill="#fefdfd" d="M 318.519531 66.34375 C 318.464844 65.558594 318.859375 64.988281 319.378906 64.46875 C 320.386719 63.46875 321.382812 62.457031 322.394531 61.460938 C 325.324219 58.5625 328.125 55.527344 331.261719 52.847656 C 332.28125 51.976562 333.351562 51.136719 334.914062 51.558594 C 336.871094 52.089844 337.648438 53.957031 336.46875 55.601562 C 336.175781 56.011719 335.792969 56.410156 335.359375 56.660156 C 332.648438 58.230469 330.585938 60.558594 328.277344 62.601562 C 326.15625 64.472656 324.171875 66.507812 321.8125 68.101562 C 321.058594 68.609375 320.3125 68.867188 319.476562 68.339844 C 318.738281 67.878906 318.558594 67.144531 318.519531 66.34375 Z M 318.519531 66.34375 " fill-opacity="1" fill-rule="nonzero"/></g><path fill="#fefdfd" d="M 303.074219 46.152344 C 303.191406 49.613281 303 52.960938 303.347656 56.300781 C 303.492188 57.703125 303.339844 59.125 303.441406 60.542969 C 303.53125 61.785156 302.835938 62.617188 301.816406 62.867188 C 300.609375 63.160156 299.75 62.75 299.191406 61.484375 C 298.539062 59.996094 298.257812 58.445312 298.375 56.785156 C 298.5 55.070312 298.296875 53.3125 298.066406 51.632812 C 297.828125 49.894531 297.710938 48.222656 297.953125 46.5 C 298.023438 46.003906 297.941406 45.46875 297.859375 44.964844 C 297.722656 44.117188 297.789062 43.277344 298.023438 42.472656 C 298.359375 41.324219 299.371094 40.660156 300.511719 40.734375 C 301.585938 40.804688 302.4375 41.476562 302.65625 42.628906 C 302.886719 43.824219 303.210938 45.023438 303.074219 46.152344 Z M 303.074219 46.152344 " fill-opacity="1" fill-rule="nonzero"/><g clip-path="url(#229698080c)"><path fill="#fefdfd" d="M 310.839844 56.445312 C 310.78125 55.773438 310.890625 55.085938 311.140625 54.40625 C 312.136719 51.710938 312.574219 48.859375 313.566406 46.144531 C 314.191406 44.433594 314.78125 42.640625 315.238281 40.84375 C 315.378906 40.28125 315.558594 39.722656 315.789062 39.191406 C 316.273438 38.066406 317.140625 37.523438 318.191406 37.632812 C 319.21875 37.738281 320.023438 38.488281 320.300781 39.613281 C 320.660156 41.078125 320.253906 42.484375 319.632812 43.734375 C 318.328125 46.359375 318.019531 49.277344 316.996094 51.984375 C 316.15625 54.203125 315.449219 56.472656 314.644531 58.710938 C 314.359375 59.503906 313.710938 59.996094 312.875 60 C 311.953125 60.003906 311.332031 59.472656 311 58.585938 C 310.738281 57.894531 310.726562 57.203125 310.839844 56.445312 Z M 310.839844 56.445312 " fill-opacity="1" fill-rule="nonzero"/></g><path fill="#bab9b6" d="M 257.777344 215.957031 C 257.535156 217.667969 257.296875 219.382812 257.050781 221.097656 C 257.03125 221.222656 256.949219 221.347656 256.957031 221.46875 C 257.140625 224.9375 255.539062 228.105469 255.292969 231.503906 C 255.265625 231.882812 255.175781 232.285156 255.011719 232.621094 C 253.851562 234.960938 253.445312 237.542969 252.878906 240.027344 C 252.148438 243.257812 251.132812 246.421875 250.648438 249.730469 C 250.171875 252.957031 249.507812 256.210938 248.589844 259.328125 C 247.660156 262.488281 247.171875 265.722656 246.316406 268.875 C 245.816406 270.710938 245.589844 272.679688 244.527344 274.359375 C 244.296875 274.722656 244.164062 275.207031 244.15625 275.640625 C 244.097656 279.839844 242.589844 283.679688 241.234375 287.558594 C 240.808594 288.773438 240.4375 289.996094 240.152344 291.261719 C 239.660156 293.464844 238.597656 295.480469 237.726562 297.554688 C 236.957031 299.382812 236.046875 301.171875 235.132812 302.914062 C 233.863281 305.335938 233.070312 308.054688 231.109375 310.113281 C 230.542969 310.707031 230.191406 311.507812 229.734375 312.207031 C 229.453125 312.640625 229.195312 313.09375 228.871094 313.492188 C 227.597656 315.0625 226.285156 315.371094 224.824219 314.488281 C 223.511719 313.6875 223.105469 311.785156 223.917969 310.179688 C 224.0625 309.894531 224.269531 309.640625 224.449219 309.375 C 226.421875 306.449219 228.246094 303.453125 229.558594 300.148438 C 230.316406 298.242188 231.394531 296.460938 232.332031 294.628906 C 232.449219 294.398438 232.691406 294.203125 232.730469 293.96875 C 233.300781 290.65625 235.101562 287.734375 235.6875 284.40625 C 235.96875 282.796875 236.59375 281.226562 237.03125 279.628906 C 237.414062 278.238281 237.328125 276.824219 237.75 275.464844 C 238.574219 272.824219 239.277344 270.144531 240.054688 267.484375 C 240.792969 264.960938 240.882812 262.292969 241.808594 259.808594 C 242.574219 257.753906 242.714844 255.546875 243.300781 253.449219 C 243.527344 252.636719 243.757812 251.839844 243.707031 250.984375 C 243.671875 250.394531 243.820312 249.832031 244.105469 249.308594 C 244.578125 248.445312 244.925781 247.589844 244.566406 246.558594 C 244.398438 246.074219 244.613281 245.542969 244.855469 245.070312 C 246.183594 242.460938 246.757812 239.574219 247.398438 236.789062 C 247.886719 234.652344 248.578125 232.601562 249.195312 230.515625 C 250.195312 227.121094 250.742188 223.609375 251.664062 220.210938 C 252.316406 217.816406 252.964844 215.375 253.902344 213.050781 C 254.214844 212.277344 254.707031 211.683594 255.597656 211.695312 C 256.398438 211.707031 256.832031 212.261719 257.191406 212.925781 C 257.714844 213.886719 257.71875 214.90625 257.777344 215.957031 Z M 257.777344 215.957031 " fill-opacity="1" fill-rule="nonzero"/><path fill="#db383f" d="M 167.371094 189.976562 C 167.449219 187.664062 168.75 186 170.046875 184.179688 C 172.066406 181.34375 175.070312 179.996094 177.863281 178.371094 C 179.230469 177.574219 181.074219 177.519531 182.738281 177.488281 C 185.503906 177.441406 188.273438 177.503906 191.019531 177.917969 C 192.761719 178.183594 194.375 178.824219 195.933594 179.605469 C 196.804688 180.042969 197.351562 180.753906 196.972656 181.8125 C 196.664062 182.671875 196.960938 183.625 196.515625 184.453125 C 194.757812 187.933594 192.101562 190.566406 188.773438 192.539062 C 186.957031 193.617188 185.09375 194.5 182.902344 194.710938 C 180.445312 194.949219 178.054688 195.039062 175.679688 194.234375 C 172.890625 193.285156 170.019531 192.527344 167.828125 190.375 C 167.710938 190.183594 167.65625 189.921875 167.351562 189.9375 Z M 167.371094 189.976562 " fill-opacity="1" fill-rule="nonzero"/><path fill="#db383f" d="M 216.160156 168.839844 C 213.617188 168.839844 211.355469 168.1875 209.40625 166.449219 C 208.101562 165.28125 207.640625 163.9375 208.070312 162.304688 C 208.539062 160.542969 209.679688 159.378906 211.492188 159.015625 C 212.128906 158.886719 212.726562 158.726562 213.320312 158.457031 C 215.804688 157.316406 218.382812 157.617188 220.570312 158.882812 C 222.578125 160.042969 223.882812 162.082031 223.96875 164.609375 C 224.007812 165.664062 223.488281 166.417969 222.679688 167.0625 C 220.75 168.609375 218.511719 168.925781 216.160156 168.839844 Z M 216.160156 168.839844 " fill-opacity="1" fill-rule="nonzero"/><path fill="#bab9b6" d="M 149.5 306.453125 C 149.070312 307.773438 148.558594 309.386719 147.527344 310.699219 C 146.660156 311.800781 145.574219 312.75 144.496094 313.664062 C 143.097656 314.847656 141.421875 315.441406 139.613281 315.789062 C 136.40625 316.40625 133.371094 316.117188 130.5 314.496094 C 129.988281 314.210938 129.5 313.914062 129.109375 313.472656 C 128.289062 312.542969 128.144531 311.773438 128.621094 310.839844 C 129.164062 309.777344 130.140625 309.214844 131.308594 309.488281 C 132.4375 309.75 133.59375 309.75 134.730469 309.996094 C 136.578125 310.394531 138.421875 309.828125 140.234375 309.429688 C 140.945312 309.277344 141.550781 308.757812 141.875 308.148438 C 142.476562 307.023438 143.355469 306.074219 143.84375 304.875 C 144.496094 303.277344 145.589844 302.632812 146.953125 302.9375 C 148.441406 303.265625 149.507812 304.613281 149.5 306.453125 Z M 149.5 306.453125 " fill-opacity="1" fill-rule="nonzero"/><path fill="#db383f" d="M 142.152344 171.554688 C 141.195312 171.632812 140.265625 171.789062 139.296875 171.398438 C 135.480469 169.847656 135.65625 166.710938 137.59375 164.214844 C 138.621094 162.894531 140.011719 162.007812 141.84375 161.792969 C 143.230469 161.632812 144.582031 161.160156 146.011719 161.085938 C 147.042969 161.03125 147.902344 161.214844 148.6875 161.90625 C 149.214844 162.371094 149.863281 162.703125 150.40625 163.15625 C 151.726562 164.25 152.03125 165.566406 151.316406 167.128906 C 149.902344 170.210938 147.039062 170.976562 144.085938 171.539062 C 143.460938 171.65625 142.796875 171.554688 142.152344 171.554688 Z M 142.152344 171.554688 " fill-opacity="1" fill-rule="nonzero"/><path fill="#e5b95c" d="M 176.984375 102.714844 C 176.984375 102.578125 177.042969 102.363281 176.976562 102.195312 C 176.347656 100.609375 176.988281 99.222656 177.492188 97.742188 C 177.933594 96.457031 178.613281 95.445312 179.582031 94.574219 C 181.660156 92.691406 184.105469 91.507812 186.902344 91.605469 C 190.964844 91.742188 193.109375 94.113281 193.972656 97.585938 C 194.53125 99.839844 194.527344 102.175781 193.730469 104.417969 C 192.835938 106.941406 191.09375 108.621094 188.488281 109.371094 C 187.6875 109.605469 186.898438 110.019531 186.085938 110.066406 C 184.265625 110.164062 182.5625 109.429688 180.90625 108.832031 C 179.390625 108.289062 178.214844 107.089844 177.507812 105.542969 C 177.097656 104.65625 176.660156 103.792969 176.984375 102.714844 Z M 176.984375 102.714844 " fill-opacity="1" fill-rule="nonzero"/></svg>